<svg width="68" height="67" viewBox="0 0 68 67" fill="none" xmlns="http://www.w3.org/2000/svg">
<path d="M28.0026 31.1109C27.7085 31.567 27.2251 31.8751 26.6828 31.8967C25.2668 31.953 23.8785 31.7513 22.518 31.2916C20.8847 30.7397 19.4331 29.8971 18.1633 28.7636C16.9327 27.6156 16.0256 26.2579 15.4419 24.6906C14.5227 22.2219 14.3248 19.9531 14.8483 17.8842C15.411 15.8007 16.4404 14.0119 17.9365 12.5178C19.4717 11.0092 21.2582 9.87545 23.2958 9.1167C24.197 8.78109 25.1862 8.50197 26.2634 8.27933C26.5656 8.21686 26.8671 8.16171 27.1677 8.11388C28.4641 7.90764 29.6032 8.87745 29.7853 10.1774C29.9856 11.6075 28.9623 12.913 27.5528 13.2271C27.5377 13.2304 27.5225 13.2338 27.5073 13.2373C26.6014 13.4407 25.7958 13.6738 25.0905 13.9364C23.6799 14.4617 22.5208 15.1833 21.6133 16.1013C20.7058 17.0193 20.1064 18.0456 19.8151 19.1803C19.5091 20.2758 19.575 21.4114 20.0128 22.5869C20.4067 23.6449 21.0581 24.4955 21.9669 25.1387C22.9003 25.7281 23.9539 26.1612 25.1278 26.438C26.2871 26.6755 27.4149 26.7687 28.5113 26.7174C29.3475 26.6474 30.1677 27.7527 29.713 28.458L28.0026 31.1109Z" fill="url(#paint0_linear_40432_2488)"/>
<mask id="path-2-inside-1_40432_2488" fill="white">
<path d="M55.1698 47.3826C56.8039 47.8512 57.7704 49.5709 57.0486 51.11C55.6036 54.1913 53.3618 56.8541 50.5314 58.8085C46.8516 61.3494 42.4047 62.5357 37.9484 62.1654C33.492 61.7951 29.3019 59.8911 26.092 56.7778C22.8821 53.6644 20.851 49.5344 20.3447 45.0914C19.8385 40.6484 20.8885 36.1674 23.3158 32.4118C25.7431 28.6562 29.3975 25.8584 33.6564 24.4951C37.9152 23.1318 42.515 23.2874 46.672 24.9354C49.8695 26.203 52.6529 28.2932 54.754 30.9705C55.8035 32.3078 55.2486 34.2009 53.7618 35.025C52.275 35.8492 50.4239 35.2787 49.2779 34.0231C47.9384 32.5557 46.275 31.4001 44.4033 30.6582C41.5703 29.5351 38.4355 29.429 35.5331 30.3581C32.6307 31.2872 30.1402 33.1939 28.486 35.7533C26.8318 38.3128 26.1162 41.3666 26.4612 44.3945C26.8062 47.4225 28.1904 50.2371 30.378 52.3588C32.5655 54.4806 35.4211 55.7782 38.4581 56.0305C41.4952 56.2829 44.5257 55.4744 47.0335 53.7428C48.6903 52.5988 50.0511 51.0986 51.0261 49.3675C51.8604 47.8863 53.5357 46.914 55.1698 47.3826Z"/>
</mask>
<path d="M55.1698 47.3826C56.8039 47.8512 57.7704 49.5709 57.0486 51.11C55.6036 54.1913 53.3618 56.8541 50.5314 58.8085C46.8516 61.3494 42.4047 62.5357 37.9484 62.1654C33.492 61.7951 29.3019 59.8911 26.092 56.7778C22.8821 53.6644 20.851 49.5344 20.3447 45.0914C19.8385 40.6484 20.8885 36.1674 23.3158 32.4118C25.7431 28.6562 29.3975 25.8584 33.6564 24.4951C37.9152 23.1318 42.515 23.2874 46.672 24.9354C49.8695 26.203 52.6529 28.2932 54.754 30.9705C55.8035 32.3078 55.2486 34.2009 53.7618 35.025C52.275 35.8492 50.4239 35.2787 49.2779 34.0231C47.9384 32.5557 46.275 31.4001 44.4033 30.6582C41.5703 29.5351 38.4355 29.429 35.5331 30.3581C32.6307 31.2872 30.1402 33.1939 28.486 35.7533C26.8318 38.3128 26.1162 41.3666 26.4612 44.3945C26.8062 47.4225 28.1904 50.2371 30.378 52.3588C32.5655 54.4806 35.4211 55.7782 38.4581 56.0305C41.4952 56.2829 44.5257 55.4744 47.0335 53.7428C48.6903 52.5988 50.0511 51.0986 51.0261 49.3675C51.8604 47.8863 53.5357 46.914 55.1698 47.3826Z" stroke="url(#paint1_linear_40432_2488)" stroke-width="6.27176" mask="url(#path-2-inside-1_40432_2488)"/>
<circle cx="55.5053" cy="41.1195" r="2.10959" transform="rotate(16 55.5053 41.1195)" stroke="url(#paint2_linear_40432_2488)" stroke-width="1.25435"/>
<circle cx="37.0639" cy="9.84995" r="2.10959" transform="rotate(16 37.0639 9.84995)" stroke="url(#paint3_linear_40432_2488)" stroke-width="1.25435"/>
<defs>
<linearGradient id="paint0_linear_40432_2488" x1="12.8989" y1="2.58786" x2="88.5203" y2="29.9209" gradientUnits="userSpaceOnUse">
<stop stop-color="#A854E9"/>
<stop offset="1" stop-color="#4F91FC"/>
</linearGradient>
<linearGradient id="paint1_linear_40432_2488" x1="34.0396" y1="7.9936" x2="121.135" y2="141.473" gradientUnits="userSpaceOnUse">
<stop stop-color="#A854E9"/>
<stop offset="1" stop-color="#4F91FC"/>
</linearGradient>
<linearGradient id="paint2_linear_40432_2488" x1="53.393" y1="36.583" x2="70.4569" y2="51.3514" gradientUnits="userSpaceOnUse">
<stop stop-color="#A854E9"/>
<stop offset="1" stop-color="#4F91FC"/>
</linearGradient>
<linearGradient id="paint3_linear_40432_2488" x1="34.9516" y1="5.31347" x2="52.0154" y2="20.0818" gradientUnits="userSpaceOnUse">
<stop stop-color="#A854E9"/>
<stop offset="1" stop-color="#4F91FC"/>
</linearGradient>
</defs>
</svg>
