<svg width="91" height="54" viewBox="0 0 91 54" fill="none" xmlns="http://www.w3.org/2000/svg">
<path d="M13.372 4.36719H17.9273V26.2621H14.4006L4.55531 13.0076V26.2621H0V4.36719H3.4973L13.372 17.5335V4.36719Z" fill="black"/>
<path d="M54.3654 9.86295C58.9207 9.86295 62.5062 13.5366 62.5062 18.2388C62.5062 22.9117 59.0089 26.6147 54.3361 26.6147C52.367 26.6147 50.6036 25.9682 49.4575 24.7338V26.2621H45.343V4.36719H49.7514V11.5675C50.8387 10.4801 52.4552 9.86295 54.3654 9.86295ZM53.807 22.6472C56.2169 22.6472 57.9509 20.8251 57.9509 18.2388C57.9509 15.682 56.2169 13.8305 53.807 13.8305C51.4265 13.8305 49.7514 15.6526 49.7514 18.2388C49.7514 20.8545 51.4265 22.6472 53.807 22.6472Z" fill="black"/>
<path d="M66.5154 26.2621V4.36719H70.9237V26.2621H66.5154Z" fill="black"/>
<path d="M91 17.7686C91 18.4152 90.9412 19.0323 90.7943 19.4732H79.5089C79.7734 21.501 81.2134 22.7941 83.3882 22.7941C84.9459 22.7941 86.092 22.1182 86.7092 21.0308L90.2359 22.706C89.266 25.0571 86.621 26.6147 83.3295 26.6147C78.2451 26.6147 74.9242 22.8529 74.9242 18.2094C74.9242 13.419 78.4509 9.86295 83.0356 9.86295C87.5321 9.86295 91 13.3309 91 17.7686ZM79.597 16.2404H86.3271C86.1508 14.5358 84.8577 13.3896 83.0356 13.3896C81.3016 13.3896 80.0379 14.3889 79.597 16.2404Z" fill="black"/>
<path d="M28.4517 13.3993C28.3216 13.601 28.1079 13.7372 27.868 13.7467C27.2419 13.7717 26.6279 13.6825 26.0263 13.4792C25.304 13.2351 24.6622 12.8625 24.1006 12.3613C23.5564 11.8536 23.1553 11.2532 22.8972 10.5601C22.4907 9.46847 22.4032 8.46519 22.6347 7.55029C22.8835 6.62894 23.3387 5.83792 24.0003 5.17722C24.6792 4.51006 25.4692 4.00872 26.3702 3.67319C26.7688 3.52478 27.2062 3.40135 27.6826 3.3029C27.8162 3.27527 27.9495 3.25088 28.0825 3.22973C28.6558 3.13853 29.1595 3.56739 29.24 4.14226C29.3286 4.77465 28.876 5.35196 28.2528 5.49084C28.2461 5.49234 28.2393 5.49384 28.2326 5.49535C27.832 5.58532 27.4758 5.68838 27.1639 5.80452C26.5401 6.03681 26.0275 6.35593 25.6262 6.76186C25.2249 7.16779 24.9599 7.62165 24.831 8.12343C24.6958 8.60789 24.7249 9.11004 24.9185 9.62987C25.0927 10.0977 25.3807 10.4739 25.7826 10.7583C26.1954 11.0189 26.6613 11.2105 27.1804 11.3328C27.6931 11.4379 28.1918 11.4791 28.6766 11.4564C29.0464 11.4255 29.4091 11.9142 29.208 12.2261L28.4517 13.3993Z" fill="url(#paint0_linear_40432_2418)"/>
<mask id="path-3-inside-1_40432_2418" fill="white">
<path d="M40.4672 20.5958C41.1898 20.803 41.6172 21.5635 41.298 22.2441C40.659 23.6067 39.6676 24.7842 38.416 25.6485C36.7888 26.7721 34.8223 27.2967 32.8516 27.1329C30.881 26.9692 29.0281 26.1272 27.6086 24.7505C26.1891 23.3737 25.291 21.5474 25.0671 19.5826C24.8433 17.6179 25.3076 15.6363 26.381 13.9755C27.4543 12.3148 29.0704 11.0775 30.9537 10.4747C32.837 9.87183 34.8711 9.94064 36.7093 10.6694C38.1233 11.2299 39.3542 12.1543 40.2833 13.3382C40.7474 13.9296 40.502 14.7667 39.8445 15.1312C39.187 15.4956 38.3685 15.2433 37.8617 14.6881C37.2694 14.0392 36.5338 13.5282 35.7061 13.2001C34.4533 12.7034 33.0671 12.6565 31.7836 13.0674C30.5001 13.4782 29.3988 14.3214 28.6673 15.4532C27.9358 16.585 27.6193 17.9355 27.7719 19.2745C27.9245 20.6134 28.5366 21.8581 29.5039 22.7963C30.4713 23.7346 31.7341 24.3084 33.0771 24.42C34.4201 24.5316 35.7602 24.1741 36.8692 23.4084C37.6018 22.9025 38.2036 22.2391 38.6348 21.4736C39.0037 20.8186 39.7445 20.3886 40.4672 20.5958Z"/>
</mask>
<path d="M40.4672 20.5958C41.1898 20.803 41.6172 21.5635 41.298 22.2441C40.659 23.6067 39.6676 24.7842 38.416 25.6485C36.7888 26.7721 34.8223 27.2967 32.8516 27.1329C30.881 26.9692 29.0281 26.1272 27.6086 24.7505C26.1891 23.3737 25.291 21.5474 25.0671 19.5826C24.8433 17.6179 25.3076 15.6363 26.381 13.9755C27.4543 12.3148 29.0704 11.0775 30.9537 10.4747C32.837 9.87183 34.8711 9.94064 36.7093 10.6694C38.1233 11.2299 39.3542 12.1543 40.2833 13.3382C40.7474 13.9296 40.502 14.7667 39.8445 15.1312C39.187 15.4956 38.3685 15.2433 37.8617 14.6881C37.2694 14.0392 36.5338 13.5282 35.7061 13.2001C34.4533 12.7034 33.0671 12.6565 31.7836 13.0674C30.5001 13.4782 29.3988 14.3214 28.6673 15.4532C27.9358 16.585 27.6193 17.9355 27.7719 19.2745C27.9245 20.6134 28.5366 21.8581 29.5039 22.7963C30.4713 23.7346 31.7341 24.3084 33.0771 24.42C34.4201 24.5316 35.7602 24.1741 36.8692 23.4084C37.6018 22.9025 38.2036 22.2391 38.6348 21.4736C39.0037 20.8186 39.7445 20.3886 40.4672 20.5958Z" stroke="url(#paint1_linear_40432_2418)" stroke-width="3.02557" mask="url(#path-3-inside-1_40432_2418)"/>
<circle cx="40.613" cy="17.8251" r="0.907672" transform="rotate(16 40.613 17.8251)" stroke="url(#paint2_linear_40432_2418)" stroke-width="0.605115"/>
<circle cx="32.4587" cy="4.00084" r="0.907672" transform="rotate(16 32.4587 4.00084)" stroke="url(#paint3_linear_40432_2418)" stroke-width="0.605115"/>
<circle cx="39.3328" cy="33.6571" r="1.60314" stroke="url(#paint4_linear_40432_2418)" stroke-width="1.06876"/>
<path d="M27.5347 31.5195H31.943V53.4144H27.3877V39.3076L20.7752 47.8305H20.1874L13.5748 38.9844V53.4144H9.01953V31.5195H13.4279L20.4519 40.7771L27.5347 31.5195Z" fill="black"/>
<path d="M37.1305 53.4144V37.368H41.5389V53.4144H37.1305Z" fill="black"/>
<path d="M55.032 37.0153C58.6468 37.0153 61.1155 39.4546 61.1155 43.0988V53.4144H56.7071V44.0393C56.7071 42.1878 55.5022 40.9828 53.7682 40.9828C52.0343 40.9828 50.8293 42.1878 50.8293 44.0393V53.4144H46.421V37.368H50.5354V39.3076C51.3583 37.75 53.0041 37.0153 55.032 37.0153Z" fill="black"/>
<path d="M77.5723 31.5195H81.9807V53.4144H77.8662V51.8862C76.72 53.1205 74.9567 53.7671 72.9876 53.7671C68.3148 53.7671 64.8175 50.064 64.8175 45.3912C64.8175 40.6889 68.4029 37.0153 72.9582 37.0153C74.8685 37.0153 76.4849 37.6325 77.5723 38.7199V31.5195ZM73.5166 49.7995C75.8971 49.7995 77.5723 48.0068 77.5723 45.3912C77.5723 42.8049 75.8971 40.9828 73.5166 40.9828C71.1067 40.9828 69.3728 42.8343 69.3728 45.3912C69.3728 47.9774 71.1067 49.7995 73.5166 49.7995Z" fill="black"/>
<defs>
<linearGradient id="paint0_linear_40432_2418" x1="21.7726" y1="0.78606" x2="55.2133" y2="12.8731" gradientUnits="userSpaceOnUse">
<stop stop-color="#A854E9"/>
<stop offset="1" stop-color="#4F91FC"/>
</linearGradient>
<linearGradient id="paint1_linear_40432_2418" x1="31.1231" y1="3.17754" x2="69.6379" y2="62.2035" gradientUnits="userSpaceOnUse">
<stop stop-color="#A854E9"/>
<stop offset="1" stop-color="#4F91FC"/>
</linearGradient>
<linearGradient id="paint2_linear_40432_2418" x1="39.6789" y1="15.819" x2="47.2247" y2="22.3497" gradientUnits="userSpaceOnUse">
<stop stop-color="#A854E9"/>
<stop offset="1" stop-color="#4F91FC"/>
</linearGradient>
<linearGradient id="paint3_linear_40432_2418" x1="31.5246" y1="1.99476" x2="39.0704" y2="8.52549" gradientUnits="userSpaceOnUse">
<stop stop-color="#A854E9"/>
<stop offset="1" stop-color="#4F91FC"/>
</linearGradient>
<linearGradient id="paint4_linear_40432_2418" x1="37.683" y1="30.1139" x2="51.0106" y2="41.6486" gradientUnits="userSpaceOnUse">
<stop stop-color="#A854E9"/>
<stop offset="1" stop-color="#4F91FC"/>
</linearGradient>
</defs>
</svg>
